<svg width="34" height="94" viewBox="0 0 34 94" fill="none" xmlns="http://www.w3.org/2000/svg">
<path fill-rule="evenodd" clip-rule="evenodd" d="M10.7098 1.50907C7.58983 3.51507 4.83683 7.86507 4.83683 10.7881C4.83683 11.9621 4.19283 12.8841 3.37183 12.8841C-0.127167 12.8841 -1.33317 20.1371 1.83683 22.1161C3.74483 23.3081 3.83683 24.4481 3.83683 46.8841C3.83683 69.3201 3.74483 70.4601 1.83683 71.6521C-1.33317 73.6311 -0.127167 80.8841 3.37183 80.8841C4.26983 80.8841 4.83683 81.8571 4.83683 83.3991C4.83683 87.4381 10.5618 92.9031 15.4838 93.5631C22.0538 94.4451 28.8368 89.0691 28.8368 82.9801C28.8368 81.8271 29.2548 80.8841 29.7658 80.8841C31.5258 80.8841 33.8368 77.7351 33.8368 75.3361C33.8368 73.8731 32.8568 72.2881 31.3368 71.2921L28.8368 69.6541V46.8841V24.1141L31.3368 22.4761C32.8568 21.4801 33.8368 19.8951 33.8368 18.4321C33.8368 16.0331 31.5258 12.8841 29.7658 12.8841C29.2548 12.8841 28.8368 11.7521 28.8368 10.3691C28.8368 8.92107 27.4438 6.33507 25.5528 4.27107C21.5578 -0.0879273 15.0718 -1.29493 10.7098 1.50907ZM22.5228 6.05807C23.7948 7.25407 24.8368 9.27907 24.8368 10.5581C24.8368 12.7991 24.5438 12.8841 16.8368 12.8841C9.27683 12.8841 8.83683 12.7641 8.83683 10.6981C8.83683 4.67407 17.8098 1.63107 22.5228 6.05807ZM29.6478 18.1341C29.9538 19.7291 28.8218 19.8841 16.9098 19.8841C6.68284 19.8841 3.83683 19.5941 3.83683 18.5511C3.83683 16.0731 5.20083 15.8251 17.2708 16.1051C27.8138 16.3491 29.3538 16.6021 29.6478 18.1341ZM17.8368 24.1721C17.8368 24.3301 15.5868 26.6751 12.8368 29.3841L7.83683 34.3091V29.0961V23.8841H12.8368C15.5868 23.8841 17.8368 24.0131 17.8368 24.1721ZM25.8368 38.6131V45.3421L17.6088 53.6131C13.0838 58.1621 9.03383 61.8841 8.60883 61.8841C8.18383 61.8841 7.83683 58.8561 7.83683 55.1551V48.4261L16.0648 40.1551C20.5898 35.6061 24.6398 31.8841 25.0648 31.8841C25.4898 31.8841 25.8368 34.9121 25.8368 38.6131ZM25.8368 64.8841V69.8841H20.6248H15.4118L20.3368 64.8841C23.0458 62.1341 25.3908 59.8841 25.5488 59.8841C25.7078 59.8841 25.8368 62.1341 25.8368 64.8841ZM29.6468 75.6341C29.3468 77.1891 27.9208 77.3841 16.8368 77.3841C5.75283 77.3841 4.32683 77.1891 4.02683 75.6341C3.71983 74.0391 4.85483 73.8841 16.8368 73.8841C28.8188 73.8841 29.9538 74.0391 29.6468 75.6341ZM24.8368 83.0701C24.8368 86.5651 21.0088 89.8841 16.9768 89.8841C12.8038 89.8841 8.83683 86.6311 8.83683 83.2101C8.83683 80.9691 9.12983 80.8841 16.8368 80.8841C24.3968 80.8841 24.8368 81.0041 24.8368 83.0701Z" fill="black" fill-opacity="0.13"/>
</svg>
